<svg width="27" height="27" viewBox="0 0 27 27" fill="none" xmlns="http://www.w3.org/2000/svg">
<path d="M3.90023 1.37103C2.04413 1.37103 0.830566 2.58985 0.830566 4.19181C0.830566 5.75839 2.00797 7.01196 3.82901 7.01196H3.86423C5.75665 7.01196 6.93436 5.75839 6.93436 4.19181C6.89898 2.58985 5.75665 1.37103 3.90023 1.37103Z" fill="#F2F2F2"/>
<path d="M1.15131 9.24088H6.57749V25.5658H1.15131V9.24088Z" fill="#F2F2F2"/>
<path d="M19.8963 8.85773C16.969 8.85773 15.0062 11.6084 15.0062 11.6084V9.24088H9.57983V25.5658H15.0059V16.4493C15.0059 15.9613 15.0412 15.474 15.1846 15.125C15.5769 14.1504 16.4695 13.1408 17.9686 13.1408C19.9321 13.1408 20.7174 14.6379 20.7174 16.8325V25.5658H26.1431V16.2054C26.1431 11.1911 23.466 8.85773 19.8963 8.85773Z" fill="#F2F2F2"/>
</svg>
