<svg width="27" height="27" viewBox="0 0 27 27" fill="none" xmlns="http://www.w3.org/2000/svg">
<path d="M24.7458 0.830566H2.22659C1.4555 0.83103 0.830412 1.45643 0.830566 2.22782V24.747C0.83103 25.5181 1.45643 26.1432 2.22782 26.1431H14.352V16.3542H11.0643V12.5228H14.352V9.70307C14.352 6.43318 16.3482 4.6534 19.2651 4.6534C20.6622 4.6534 21.8628 4.75753 22.2127 4.80403V8.22162H20.2013C18.6144 8.22162 18.3071 8.97571 18.3071 10.0825V12.5228H22.1015L21.6071 16.3542H18.3071V26.1431H24.7458C25.5174 26.1432 26.1429 25.518 26.1431 24.7464C26.1431 24.7463 26.1431 24.7461 26.1431 24.7458V2.22659C26.1428 1.4555 25.5172 0.830412 24.7458 0.830566Z" fill="#F2F2F2"/>
</svg>
