<svg width="21" height="21" viewBox="0 0 21 21" fill="none" xmlns="http://www.w3.org/2000/svg">
<g clip-path="url(#clip0)">
<path d="M20.9795 6.38005C20.9303 5.31738 20.7498 4.5868 20.4914 3.95374C20.2247 3.28176 19.8145 2.68014 19.277 2.18002C18.7519 1.6721 18.116 1.27743 17.4186 1.02745C16.75 0.781274 15.9869 0.609427 14.8711 0.562573C13.747 0.511752 13.3901 0.5 10.539 0.5C7.68783 0.5 7.33095 0.511752 6.21098 0.558605C5.09517 0.605459 4.32806 0.777459 3.66351 1.02348C2.95777 1.27743 2.32607 1.66814 1.80094 2.18002C1.26763 2.68014 0.853392 3.28573 0.590745 3.94992C0.332264 4.5868 0.151824 5.31341 0.102628 6.37609C0.0492654 7.4467 0.0369263 7.78658 0.0369263 10.502C0.0369263 13.2173 0.0492654 13.5572 0.0984617 14.6239C0.147658 15.6865 0.328258 16.4171 0.586738 17.0502C0.853392 17.7221 1.26763 18.3238 1.80094 18.8239C2.32607 19.3318 2.96194 19.7265 3.65934 19.9765C4.32806 20.2226 5.091 20.3945 6.20697 20.4413C7.32679 20.4883 7.68382 20.4999 10.535 20.4999C13.3861 20.4999 13.743 20.4883 14.8629 20.4413C15.9788 20.3945 16.7459 20.2226 17.4104 19.9765C18.8217 19.4568 19.9375 18.3941 20.4832 17.0502C20.7415 16.4133 20.9221 15.6865 20.9713 14.6239C21.0205 13.5572 21.0328 13.2173 21.0328 10.502C21.0328 7.78658 21.0287 7.4467 20.9795 6.38005ZM19.0884 14.5457C19.0432 15.5225 18.8709 16.0499 18.7273 16.4015C18.3745 17.2728 17.6484 17.9643 16.7335 18.3004C16.3643 18.4372 15.8065 18.6012 14.7849 18.6441C13.6773 18.6911 13.3451 18.7027 10.5431 18.7027C7.74119 18.7027 7.40483 18.6911 6.3012 18.6441C5.27561 18.6012 4.72179 18.4372 4.35258 18.3004C3.89731 18.1402 3.48291 17.8862 3.14655 17.5541C2.79785 17.2298 2.53119 16.8391 2.36293 16.4055C2.21935 16.0539 2.04708 15.5225 2.00205 14.5497C1.9527 13.4948 1.94052 13.1783 1.94052 10.5097C1.94052 7.84122 1.9527 7.52087 2.00205 6.46995C2.04708 5.49319 2.21935 4.96575 2.36293 4.61412C2.53119 4.18038 2.79785 3.78586 3.15071 3.46536C3.49108 3.13327 3.90132 2.87931 4.35674 2.71921C4.72595 2.58247 5.28394 2.4184 6.30536 2.37537C7.413 2.32851 7.74535 2.31676 10.5471 2.31676C13.3532 2.31676 13.6854 2.32851 14.7891 2.37537C15.8147 2.4184 16.3685 2.58247 16.7377 2.71921C17.193 2.87931 17.6074 3.13327 17.9437 3.46536C18.2924 3.78967 18.5591 4.18038 18.7273 4.61412C18.8709 4.96575 19.0432 5.49701 19.0884 6.46995C19.1376 7.52484 19.1499 7.84122 19.1499 10.5097C19.1499 13.1783 19.1376 13.4908 19.0884 14.5457Z" fill="#F2F2F2"/>
<path d="M10.539 5.36423C7.56074 5.36423 5.14435 7.6654 5.14435 10.5019C5.14435 13.3385 7.56074 15.6397 10.539 15.6397C13.5173 15.6397 15.9336 13.3385 15.9336 10.5019C15.9336 7.6654 13.5173 5.36423 10.539 5.36423ZM10.539 13.8347C8.60684 13.8347 7.03961 12.3422 7.03961 10.5019C7.03961 8.66169 8.60684 7.16924 10.539 7.16924C12.4712 7.16924 14.0383 8.66169 14.0383 10.5019C14.0383 12.3422 12.4712 13.8347 10.539 13.8347Z" fill="#F2F2F2"/>
<path d="M17.4064 5.1611C17.4064 5.82346 16.8425 6.36052 16.1469 6.36052C15.4514 6.36052 14.8875 5.82346 14.8875 5.1611C14.8875 4.49858 15.4514 3.96167 16.1469 3.96167C16.8425 3.96167 17.4064 4.49858 17.4064 5.1611Z" fill="#F2F2F2"/>
</g>
<defs>
<clipPath id="clip0">
<rect width="21" height="20" fill="white" transform="translate(0 0.5)"/>
</clipPath>
</defs>
</svg>
