<svg width="27" height="27" viewBox="0 0 27 27" fill="none" xmlns="http://www.w3.org/2000/svg">
<path d="M8.79599 23.6366C18.3484 23.6366 23.5722 15.7227 23.5722 8.8604C23.5722 8.63563 23.5675 8.41179 23.5575 8.1892C24.5714 7.45608 25.4526 6.54122 26.148 5.4999C25.2175 5.91368 24.216 6.19185 23.1657 6.3177C24.2378 5.67451 25.061 4.6575 25.4492 3.44512C24.4458 4.04001 23.3346 4.4722 22.1516 4.70564C21.2039 3.6962 19.8546 3.06494 18.3606 3.06494C15.4928 3.06494 13.167 5.39062 13.167 8.25746C13.167 8.6652 13.2127 9.06148 13.3017 9.44166C8.98547 9.22448 5.15795 7.15809 2.59683 4.01571C2.15101 4.78304 1.89374 5.67467 1.89374 6.62605C1.89374 8.42758 2.8106 10.0184 4.20471 10.9488C3.3527 10.9226 2.5524 10.6887 1.85272 10.2994C1.85194 10.3212 1.85194 10.3424 1.85194 10.3656C1.85194 12.8808 3.64202 14.9808 6.01862 15.4566C5.58209 15.5753 5.12281 15.6393 4.64913 15.6393C4.31508 15.6393 3.98938 15.6065 3.67298 15.5456C4.33412 17.6091 6.25144 19.1106 8.52448 19.1527C6.74694 20.5459 4.5078 21.3758 2.07423 21.3758C1.65566 21.3758 1.24189 21.3518 0.835388 21.3038C3.13382 22.777 5.86305 23.6367 8.79615 23.6367" fill="#F2F2F2"/>
</svg>
