<svg width="55" height="56" viewBox="0 0 55 56" fill="none" xmlns="http://www.w3.org/2000/svg">
<path d="M49 0.5C45.691 0.5 43 3.191 43 6.5C43 7.535 43.263 8.509 43.726 9.36L33.897 19.189C32.542 18.134 30.846 17.5 29 17.5C27.154 17.5 25.458 18.134 24.102 19.188L16.433 11.519C16.785 10.924 17 10.24 17 9.5C17 7.294 15.206 5.5 13 5.5C10.794 5.5 9 7.294 9 9.5C9 11.706 10.794 13.5 13 13.5C13.74 13.5 14.424 13.285 15.019 12.933L22.688 20.602C21.634 21.958 21 23.654 21 25.5C21 27.346 21.634 29.042 22.688 30.397L10.024 43.062C8.958 42.095 7.549 41.5 6 41.5C2.691 41.5 0 44.191 0 47.5C0 50.809 2.691 53.5 6 53.5C9.309 53.5 12 50.809 12 47.5C12 46.465 11.737 45.491 11.274 44.64L24.103 31.811C25.209 32.671 26.543 33.247 28.001 33.43V43.59C25.168 44.068 23.001 46.532 23.001 49.5C23.001 52.809 25.692 55.5 29.001 55.5C32.31 55.5 35.001 52.809 35.001 49.5C35.001 46.533 32.834 44.069 30.001 43.59V33.43C31.459 33.247 32.793 32.671 33.899 31.811L41.568 39.48C41.215 40.076 41 40.76 41 41.5C41 43.706 42.794 45.5 45 45.5C47.206 45.5 49 43.706 49 41.5C49 39.294 47.206 37.5 45 37.5C44.26 37.5 43.576 37.715 42.981 38.067L35.312 30.398C36.366 29.042 37 27.346 37 25.5C37 23.654 36.366 21.958 35.312 20.603L44.977 10.938C46.042 11.905 47.451 12.5 49 12.5C52.309 12.5 55 9.809 55 6.5C55 3.191 52.309 0.5 49 0.5ZM11 9.5C11 8.397 11.897 7.5 13 7.5C14.103 7.5 15 8.397 15 9.5C15 10.603 14.103 11.5 13 11.5C11.897 11.5 11 10.603 11 9.5ZM6 51.5C3.794 51.5 2 49.706 2 47.5C2 45.294 3.794 43.5 6 43.5C8.206 43.5 10 45.294 10 47.5C10 49.706 8.206 51.5 6 51.5ZM33 49.5C33 51.706 31.206 53.5 29 53.5C26.794 53.5 25 51.706 25 49.5C25 47.294 26.794 45.5 29 45.5C31.206 45.5 33 47.294 33 49.5ZM29 31.5C25.691 31.5 23 28.809 23 25.5C23 22.191 25.691 19.5 29 19.5C32.309 19.5 35 22.191 35 25.5C35 28.809 32.309 31.5 29 31.5ZM47 41.5C47 42.603 46.103 43.5 45 43.5C43.897 43.5 43 42.603 43 41.5C43 40.397 43.897 39.5 45 39.5C46.103 39.5 47 40.397 47 41.5ZM49 10.5C46.794 10.5 45 8.706 45 6.5C45 4.294 46.794 2.5 49 2.5C51.206 2.5 53 4.294 53 6.5C53 8.706 51.206 10.5 49 10.5Z" fill="black"/>
</svg>
